<svg xmlns="http://www.w3.org/2000/svg" viewBox="-0.5 -0.5 16 16" fill="none" stroke="#ffffff" stroke-linecap="round" stroke-linejoin="round" id="Clipboard-List--Streamline-Lucide" height="60" width="60"><desc>Clipboard List Streamline Icon: https://streamlinehq.com</desc><path d="M5.625 1.25h3.75s0.625 0 0.625 0.625v1.25s0 0.625 -0.625 0.625H5.625S5 3.75 5 3.125V1.875s0 -0.625 0.625 -0.625" stroke-width="1"/><path d="M10 2.5h1.25a1.25 1.25 0 0 1 1.25 1.25v8.75a1.25 1.25 0 0 1 -1.25 1.25H3.75a1.25 1.25 0 0 1 -1.25 -1.25V3.75a1.25 1.25 0 0 1 1.25 -1.25h1.25" stroke-width="1"/><path d="M7.5 6.875h2.5" stroke-width="1"/><path d="M7.5 10h2.5" stroke-width="1"/><path d="M5 6.875h0.00625" stroke-width="1"/><path d="M5 10h0.00625" stroke-width="1"/></svg>