<svg xmlns="http://www.w3.org/2000/svg" viewBox="-0.5 -0.5 16 16" fill="none" stroke="#ffffff" stroke-linecap="round" stroke-linejoin="round" id="Package-Minus--Streamline-Lucide" height="60" width="60"><desc>Package Minus Streamline Icon: https://streamlinehq.com</desc><path d="M10 10h3.75" stroke-width="1"/><path d="M13.125 6.25V5a1.25 1.25 0 0 0 -0.625 -1.08125l-4.375 -2.5a1.25 1.25 0 0 0 -1.25 0l-4.375 2.5A1.25 1.25 0 0 0 1.875 5v5a1.25 1.25 0 0 0 0.625 1.08125l4.375 2.5a1.25 1.25 0 0 0 1.25 0l1.25 -0.7124999999999999" stroke-width="1"/><path d="m4.6875 2.6687499999999997 5.625 3.21875" stroke-width="1"/><path d="M2.05625 4.375 7.5 7.5l5.4437500000000005 -3.125" stroke-width="1"/><path d="m7.5 13.75 0 -6.25" stroke-width="1"/></svg>