<svg xmlns="http://www.w3.org/2000/svg" viewBox="-0.5 -0.5 16 16" fill="none" stroke="#ffffff" stroke-linecap="round" stroke-linejoin="round" id="Package--Streamline-Lucide" height="60" width="60"><desc>Package Streamline Icon: https://streamlinehq.com</desc><path d="m4.6875 2.6687499999999997 5.625 3.21875" stroke-width="1"/><path d="M13.125 5a1.25 1.25 0 0 0 -0.625 -1.08125l-4.375 -2.5a1.25 1.25 0 0 0 -1.25 0l-4.375 2.5A1.25 1.25 0 0 0 1.875 5v5a1.25 1.25 0 0 0 0.625 1.08125l4.375 2.5a1.25 1.25 0 0 0 1.25 0l4.375 -2.5A1.25 1.25 0 0 0 13.125 10Z" stroke-width="1"/><path d="m2.0625 4.375 5.4375 3.125 5.4375 -3.125" stroke-width="1"/><path d="M7.5 13.75V7.5" stroke-width="1"/></svg>